HIERARCHY
ROOT Hips
{
	OFFSET 0.000000 0.000000 0.000000
	CHANNELS 6 Xposition Yposition Zposition Zrotation Yrotation Xrotation 
	JOINT LHipJoint
	{
		OFFSET 0.000000 0.000000 0.000000
		CHANNELS 3 Zrotation Yrotation Xrotation
		JOINT LeftUpLeg
		{
			OFFSET 1.363060 -1.794630 0.839290
			CHANNELS 3 Zrotation Yrotation Xrotation
			JOINT LeftLeg
			{
				OFFSET 2.448110 -6.726130 0.000000
				CHANNELS 3 Zrotation Yrotation Xrotation
				JOINT LeftFoot
				{
					OFFSET 2.562200 -7.039590 0.000000
					CHANNELS 3 Zrotation Yrotation Xrotation
					JOINT LeftToeBase
					{
						OFFSET 0.157640 -0.433110 2.322550
						CHANNELS 3 Zrotation Yrotation Xrotation
						End Site
						{
							OFFSET 0.000000 0.000000 0.000000
						}
					}
				}
			}
		}
	}
	JOINT RHipJoint
	{
		OFFSET 0.000000 0.000000 0.000000
		CHANNELS 3 Zrotation Yrotation Xrotation
		JOINT RightUpLeg
		{
			OFFSET -1.305520 -1.794630 0.839290
			CHANNELS 3 Zrotation Yrotation Xrotation
			JOINT RightLeg
			{
				OFFSET -2.542530 -6.985550 0.000000
				CHANNELS 3 Zrotation Yrotation Xrotation
				JOINT RightFoot
				{
					OFFSET -2.568260 -7.056230 0.000000
					CHANNELS 3 Zrotation Yrotation Xrotation
					JOINT RightToeBase
					{
						OFFSET -0.164730 -0.452590 2.363150
						CHANNELS 3 Zrotation Yrotation Xrotation
						End Site
						{
							OFFSET 0.000000 0.000000 0.000000
						}
					}
				}
			}
		}
	}
	JOINT LowerBack
	{
		OFFSET 0.000000 0.000000 0.000000
		CHANNELS 3 Zrotation Yrotation Xrotation
		JOINT Spine
		{
			OFFSET 0.028270 2.035590 -0.193380
			CHANNELS 3 Zrotation Yrotation Xrotation
			JOINT Spine1
			{
				OFFSET 0.056720 2.048850 -0.042750
				CHANNELS 3 Zrotation Yrotation Xrotation
				JOINT Neck
				{
					OFFSET 0.000000 0.000000 0.000000
					CHANNELS 3 Zrotation Yrotation Xrotation
					JOINT Neck1
					{
						OFFSET -0.054170 1.746240 0.172020
						CHANNELS 3 Zrotation Yrotation Xrotation
						JOINT Head
						{
							OFFSET 0.104070 1.761360 -0.123970
							CHANNELS 3 Zrotation Yrotation Xrotation
							End Site
							{
								OFFSET 0.000000 0.000000 0.000000
							}
						}
					}
				}
				JOINT LeftShoulder
				{
					OFFSET 0.000000 0.000000 0.000000
					CHANNELS 3 Zrotation Yrotation Xrotation
					JOINT LeftArm
					{
						OFFSET 3.362410 1.200890 -0.311210
						CHANNELS 3 Zrotation Yrotation Xrotation
						JOINT LeftForeArm
						{
							OFFSET 4.983000 -0.000000 -0.000000
							CHANNELS 3 Zrotation Yrotation Xrotation
							JOINT LeftHand
							{
								OFFSET 3.483560 -0.000000 -0.000000
								CHANNELS 3 Zrotation Yrotation Xrotation
								JOINT LeftFingerBase
								{
									OFFSET 0.000000 0.000000 0.000000
									CHANNELS 3 Zrotation Yrotation Xrotation
									JOINT LeftHandIndex1
									{
										OFFSET 0.715260 -0.000000 -0.000000
										CHANNELS 3 Zrotation Yrotation Xrotation
										End Site
										{
											OFFSET 0.000000 0.000000 0.000000
										}
									}
								}
								JOINT LThumb
								{
									OFFSET 0.000000 0.000000 0.000000
									CHANNELS 3 Zrotation Yrotation Xrotation
									End Site
									{
										OFFSET 0.000000 0.000000 0.000000
									}
								}
							}
						}
					}
				}
				JOINT RightShoulder
				{
					OFFSET 0.000000 0.000000 0.000000
					CHANNELS 3 Zrotation Yrotation Xrotation
					JOINT RightArm
					{
						OFFSET -3.136600 1.374050 -0.404650
						CHANNELS 3 Zrotation Yrotation Xrotation
						JOINT RightForeArm
						{
							OFFSET -5.241900 -0.000000 -0.000000
							CHANNELS 3 Zrotation Yrotation Xrotation
							JOINT RightHand
							{
								OFFSET -3.444170 -0.000000 -0.000000
								CHANNELS 3 Zrotation Yrotation Xrotation
								JOINT RightFingerBase
								{
									OFFSET 0.000000 0.000000 0.000000
									CHANNELS 3 Zrotation Yrotation Xrotation
									JOINT RightHandIndex1
									{
										OFFSET -0.622530 -0.000000 -0.000000
										CHANNELS 3 Zrotation Yrotation Xrotation
										End Site
										{
											OFFSET 0.000000 0.000000 0.000000
										}
									}
								}
								JOINT RThumb
								{
									OFFSET 0.000000 0.000000 0.000000
									CHANNELS 3 Zrotation Yrotation Xrotation
									End Site
									{
										OFFSET 0.000000 0.000000 0.000000
									}
								}
							}
						}
					}
				}
			}
		}
	}
}
MOTION
Frames: 7
Frame Time: 0.008333
-0.758579 18.090619 5.723305 -4.100140 -3.182942 0.137303 -0.634909 4.633904 4.124536 -9.943378 -4.379882 14.597918 -1.494801 -6.530911 -14.877346 -5.643773 22.664284 0.632417 0.136600 -2.382100 -6.562900 -2.132560 -4.281096 2.871902 0.031957 2.667375 -5.382260 0.816601 0.142992 1.392029 0.218420 -3.888793 12.459174 0.000000 0.000000 0.000000 6.862619 2.254828 -4.594828 -6.974111 2.530065 14.396770 -2.113642 1.206866 -11.134011 -1.844017 -4.364899 -25.028766 5.842835 -6.801003 40.812817 0.800200 -1.971600 14.712200 2.988862 -6.497032 0.771347 -69.326564 -12.162628 49.551506 126.943020 -50.628417 -92.223864 -0.639935 0.624634 -44.304571 6.368764 -15.489519 -1.810200 -7.125000 0.000000 0.000000 -14.215900 13.843600 10.744000 -3.092378 7.630482 1.066077 72.777445 17.656586 62.038884 -124.149494 48.832073 -87.374816 -0.132115 0.271303 -39.122650 -4.810982 -38.451402 3.057900 7.125000 0.000000 0.000000 38.391200 -64.819700 -19.742000 
-0.760277 18.093716 5.717611 -4.039848 -3.401296 0.218503 -0.681838 4.607464 4.101732 -9.994403 -4.452018 14.537848 -1.511515 -6.489214 -14.774827 -5.720060 22.876618 0.383412 0.130000 -2.324000 -6.401900 -2.172073 -4.286013 2.847770 0.031952 2.665351 -5.387212 0.817382 0.139553 1.390780 0.216933 -3.891909 12.457046 0.000000 0.000000 0.000000 6.582340 2.292514 -4.386651 -7.360141 2.588296 14.160352 -1.870111 1.268464 -11.190379 -2.331251 -4.692346 -24.724705 6.143995 -7.268499 41.111065 0.890600 -2.181500 14.810000 3.056456 -6.531982 0.788195 -69.218059 -12.100418 49.638401 126.726027 -50.713822 -92.043603 -0.634064 0.605714 -45.064751 6.799917 -15.076670 -1.883400 -7.125000 0.000000 0.000000 -13.950900 14.236500 10.410700 -3.043939 7.637266 1.097509 72.248097 17.107152 61.356067 -124.724536 48.661321 -87.965931 -0.174473 0.256958 -39.764394 -4.986691 -38.216601 3.129400 7.125000 0.000000 0.000000 37.953400 -64.691000 -19.374500 
-0.760477 18.096912 5.712916 -3.898678 -3.553892 0.316083 -0.756552 4.569021 4.059045 -10.095359 -4.429557 14.453818 -1.520027 -6.458313 -14.699755 -5.746830 22.945786 0.257875 0.126800 -2.295500 -6.323100 -2.238056 -4.288408 2.802266 0.030672 2.662894 -5.394886 0.818688 0.134880 1.389383 0.214998 -3.895878 12.453761 0.000000 0.000000 0.000000 6.362230 2.342044 -4.051270 -8.028869 2.664019 13.715845 -1.577594 1.339618 -11.261225 -2.892125 -5.092585 -24.335116 6.617491 -7.888154 41.354386 1.022100 -2.442000 14.886900 3.159701 -6.587045 0.821459 -69.047929 -11.906478 50.008987 126.331172 -50.867516 -91.704481 -0.635287 0.594122 -45.543156 7.189660 -15.127279 -1.997900 -7.125000 0.000000 0.000000 -13.690900 14.169900 10.224600 -2.953967 7.653954 1.156862 71.534305 16.240934 60.539056 -125.288534 48.494423 -88.545775 -0.231886 0.220175 -40.561344 -4.623507 -37.780610 2.836300 7.125000 0.000000 0.000000 37.805600 -64.245800 -18.903300 
-0.759678 18.099110 5.708122 -3.790401 -3.659241 0.343652 -0.842322 4.548882 4.064798 -10.142186 -4.492356 14.428029 -1.526900 -6.439878 -14.655349 -5.782380 23.034602 0.079934 0.117000 -2.205600 -6.074200 -2.316617 -4.306222 2.791435 0.021537 2.664523 -5.391723 0.819938 0.137885 1.390732 0.216458 -3.892295 12.453652 0.000000 0.000000 0.000000 6.316947 2.376438 -3.960456 -8.858822 2.725438 13.747915 -1.330938 1.381091 -11.269115 -3.528450 -5.516823 -23.994735 7.279975 -8.573748 41.372369 1.215600 -2.712400 14.944200 3.329678 -6.639677 0.817567 -68.692893 -11.790410 50.484794 125.752630 -51.072047 -91.205541 -0.634938 0.586355 -45.651747 7.547160 -15.203215 -2.108100 -7.125000 0.000000 0.000000 -13.450200 14.078400 10.060900 -2.882565 7.654201 1.183644 70.571144 15.401580 59.628661 -125.788427 48.350438 -89.037607 -0.328630 0.162064 -41.268300 -2.855915 -37.549297 1.668900 7.125000 0.000000 0.000000 39.385300 -63.576600 -19.205400 
-0.757081 18.100608 5.702328 -3.792914 -3.675634 0.368474 -0.901231 4.529825 4.052448 -10.099018 -4.627795 14.441194 -1.529567 -6.424579 -14.637558 -5.821054 23.147860 -0.071005 0.105900 -2.098500 -5.778000 -2.381113 -4.311538 2.760928 0.017093 2.664376 -5.394163 0.821023 0.137116 1.390872 0.216368 -3.892409 12.452093 0.000000 0.000000 0.000000 6.314374 2.355307 -3.639186 -9.517323 2.715276 13.487790 -1.142505 1.389554 -11.345867 -4.257051 -5.927880 -23.597781 7.952671 -9.224024 41.503702 1.436500 -2.974700 15.021400 3.456849 -6.700163 0.834415 -68.348890 -11.487035 51.247330 125.059340 -51.319974 -90.599695 -0.633280 0.578804 -45.695330 7.926931 -15.249600 -2.221500 -7.125000 0.000000 0.000000 -13.195800 14.014200 9.878200 -2.783917 7.659718 1.266209 69.201676 14.309670 58.835890 -126.093781 48.286284 -89.363712 -0.409575 0.092812 -41.325891 -0.908355 -37.125780 0.402900 7.125000 0.000000 0.000000 40.834800 -62.709500 -19.209500 
-0.754383 18.101008 5.694936 -3.712139 -3.593127 0.322710 -1.004849 4.513318 4.056393 -10.089433 -4.775862 14.501179 -1.527354 -6.419878 -14.655183 -5.845142 23.238721 -0.121590 0.103400 -2.073800 -5.709700 -2.490543 -4.324394 2.730578 0.004130 2.667713 -5.390308 0.822649 0.141897 1.393419 0.218604 -3.886610 12.452005 0.000000 0.000000 0.000000 6.511587 2.309580 -3.300229 -10.693253 2.695102 13.352874 -0.902368 1.372699 -11.421100 -4.926000 -6.325200 -23.180387 8.800395 -9.927264 41.462582 1.707100 -3.233300 15.077600 3.672649 -6.758715 0.840259 -67.921920 -11.280344 52.191078 124.142074 -51.627451 -89.794174 -0.627752 0.567795 -45.962263 8.442789 -15.151042 -2.351900 -7.125000 0.000000 0.000000 -12.857900 14.087600 9.590800 -2.646216 7.647684 1.347487 67.590028 13.252540 58.125149 -126.068890 48.327181 -89.409244 -0.433515 0.048848 -40.834406 -0.186690 -36.717399 -0.065600 7.125000 0.000000 0.000000 41.035700 -62.184800 -18.816300 
-0.753285 18.100109 5.686345 -3.729500 -3.347031 0.068221 -0.945285 4.539490 4.146014 -10.110408 -4.874220 14.652487 -1.529778 -6.457930 -14.709259 -5.834566 23.205194 0.000552 0.107700 -2.116200 -5.827000 -2.426544 -4.373001 2.853536 0.002125 2.668578 -5.374017 0.821684 0.148987 1.394015 0.221315 -3.881114 12.457010 0.000000 0.000000 0.000000 5.549865 2.257163 -3.544187 -10.043052 2.638036 14.484969 -0.499528 1.419734 -11.536600 -5.944543 -6.770657 -22.939496 9.351787 -10.501006 41.088250 1.954400 -3.536900 15.040100 3.680711 -6.757600 0.713107 -68.146649 -11.611574 53.405923 122.758896 -52.069477 -88.568959 -0.621142 0.558968 -46.364121 8.776849 -15.096863 -2.435300 -7.125000 0.000000 0.000000 -12.641100 14.128700 9.409200 -2.724490 7.593951 1.381694 64.914767 12.289341 57.088879 -126.001855 48.407078 -89.414046 -0.488187 0.014862 -40.551567 0.860279 -36.893314 -0.738600 7.125000 0.000000 0.000000 42.322700 -62.033900 -19.373300 
